<svg xmlns="http://www.w3.org/2000/svg" viewBox="-16.0 -20.5 152 152" width="1024" height="1024"><g fill="#1E1E1C"><polygon points="61.1,4.0 75.0,34.0 61.1,20.0"/><polygon points="58.9,4.0 45.0,34.0 58.9,20.0"/><polygon points="113.6,43.7 89.4,66.2 98.4,48.7"/><polygon points="112.9,41.6 80.1,37.7 97.7,46.6"/><polygon points="92.0,106.0 63.1,89.9 82.6,93.0"/><polygon points="93.8,104.7 87.4,72.2 84.4,91.7"/><polygon points="26.2,104.7 32.6,72.2 35.6,91.7"/><polygon points="28.0,106.0 56.9,89.9 37.4,93.0"/><polygon points="7.1,41.6 39.9,37.7 22.3,46.6"/><polygon points="6.4,43.7 30.6,66.2 21.6,48.7"/><polygon points="87.6,22.0 86.2,35.8 74.9,27.6"/><polygon points="104.7,74.5 91.1,77.5 95.5,64.2"/><polygon points="60.0,107.0 53.0,95.0 67.0,95.0"/><polygon points="15.3,74.5 24.5,64.2 28.9,77.5"/><polygon points="32.4,22.0 45.1,27.6 33.8,35.8"/><polygon points="60.0,25.5 71.5,37.0 77.6,35.7 78.3,42.0 92.8,49.3 85.4,63.8 88.5,69.3 82.8,71.8 80.3,87.9 64.2,85.4 60.0,90.0 55.8,85.4 39.7,87.9 37.2,71.8 31.5,69.3 34.6,63.8 27.2,49.3 41.7,42.0 42.4,35.7 48.5,37.0"/></g></svg>